<?xml version="1.0" encoding="UTF-8"?> <svg xmlns="http://www.w3.org/2000/svg" id="Layer_1" data-name="Layer 1" viewBox="0 0 173.53 101.83"> <defs> <style>.cls-1,.cls-2{fill:#fff;}.cls-1{fill-rule:evenodd;}</style> </defs> <title>logo-sos-amazonia</title> <path class="cls-1" d="M55,23.93c3.42,3.12,5.71-.27,14.91,1.15,5.79,1.36,8,6.94,9,9.59-1.62-.22-8.53.22-15.6-1.58-4.25-1.22-6.75-6.75-8.31-9.16"></path> <path class="cls-1" d="M90.85,44.12c-5.06-5.78-3.65-15.89,3-19.78,4.81-2,2.07-10.47-3.1-8.32C78.35,22.59,74.8,40.37,84.66,50.51c3.77,4.28,9.59-2.15,6.19-6.39"></path> <path class="cls-2" d="M97.44,13.29A30.72,30.72,0,0,0,88.55,11c-1.36-.1-2.7-.12-4-.14H83.13l-.09,0,0-.06a1,1,0,0,1,.52-.2l1-.13.32,0h.34c.69,0,1.39,0,2.08,0,3.6-.28.41-.37.61-.56-1.75-1.16-8.91.11-10.62,1.11l-.74.27-.59.24-.64.27-.67.3-.68.32-1.59.8-1,.46c-.32.13-.85.35-.5-.11A5.88,5.88,0,0,1,72,12.59l.36-.23.38-.23.4-.23.41-.23c.54-.29,1.09-.57,1.64-.85l1.53-.73,1.15-.49-.81.2c-1.07.32-2.12.73-3.21,1l-.32,0,.26-.25a17.39,17.39,0,0,1,4.83-2l.86-.26L80.35,8l.8-.21.77-.17.74-.15.71-.14.68-.11.65-.1,2.56-.27.64-.16-1.06,0-2.15.16-1.77.23-1.77.33-1.74.42-1.72.53L76,9l-1.64.71-1.59.8c-.68.4-1.37.78-2,1.19A38.94,38.94,0,0,0,67.51,14l-2.82,2.4a17.77,17.77,0,0,1-2.31,2l-.18-.07c.07-.16.14-.31.22-.46a25.35,25.35,0,0,1,4.92-5.06c1-.84,2-1.64,3.08-2.39-1.17.68-2.31,1.44-3.45,2.17a18.18,18.18,0,0,1-2.55,1.65l-.17-.09.27-.42a20.93,20.93,0,0,1,4.26-3.41L70,9.54l2.44-1.42L74.67,7c.93-.4,1.86-.77,2.8-1.12L77,6l-1.85.64-1.82.74-1.77.85a49.7,49.7,0,0,0-4.27,2.56c-1.2.87-2.35,1.77-3.48,2.73s-2,2-2.93,3l-3.67,4.77-.28.08,0,0a.47.47,0,0,1,0-.31c.07-.23.15-.46.23-.69l.31-.7a36.11,36.11,0,0,1,3-4.23,37,37,0,0,1,5.8-5.59c.11-.43-.91.33-3.09,2.23-.81.85-1.63,1.69-2.45,2.54-.44.58-1.08,1.65-1.69,1.89-.71-.26.21-1.38.49-1.81a28.08,28.08,0,0,1,4.66-5.54A31.79,31.79,0,0,1,78.92,1a36.05,36.05,0,0,1,23.86,2.28c7.71,3.55,14.13,10,13.23,14.39-1.56,5.3-6.82,5-8.86,2.65-2.85-3.3-7.41-6.42-9.71-7.07"></path> <path class="cls-2" d="M66.77,44.83c3.2,2,3.85,4.44,7.72,6.2a29.33,29.33,0,0,0,17.45,4.06l.22.08-.09.14a10.13,10.13,0,0,1-3.61.51l-.59.06-.8.06.81.15c.55.15,1.12.21.25.46A20.84,20.84,0,0,1,84,56.08l-2.38-.28a7.88,7.88,0,0,0-3.46.55l-.29.21c-.24.27-.13.42.34.46,1.22.11,2.43.2,3.66.28l1.85.21,1.89.11c1,0,1.89,0,2.85,0l1.29-.1L91,57.33l1.29-.21,1.28-.27,1.28-.32,1.27-.37,1.26-.43,1.25-.49,3.25-1.48,2.07-1c3.5-1.76-.63,1.16-1.67,1.74l-1.35.73-2.16,1.09c-.69.58,1.14-.15,3.32-1.08.72-.24,1-.14.28.3a22.82,22.82,0,0,1-5.17,2.31l-1.4.47-1.3.39L93.33,59c-1.63.37-3.26.65-4.91.88h0L88,60h.47l1.79-.16,1.8-.25,1.83-.36,1.84-.47,1.84-.59,1.77-.73,1.77-.85c3.76-1.76,7.12-4.52,10.45-7.32a17.69,17.69,0,0,1,2.56-2c.42-.29,0,.44-.15.54a29.75,29.75,0,0,1-4.54,3.9l-1,.8-1,.72c-.59.42-1.18.81-1.8,1.19-.43.27-1,.54-.73.75,1.2-.22,1.7-.89,3.39-2.14A17.92,17.92,0,0,1,110.86,51c.43-.23-.19.55-.28.61-3.19,3.07-9.25,7.14-13.52,7.75,6.14-.88,12-5.28,16.75-10.36l4.35-4.55c.25-.32.49-.11.3.27a31.32,31.32,0,0,1-4.34,5c-.56.56-1.12,1.11-1.67,1.67l-1.56,1.45-1.53,1.22-1.23.91c-.4.32.1.09.18.14.55-.12-1.21,1.17,1.64-.35.17.56-1.44,1.55-2.16,2.32a28.37,28.37,0,0,0,6.89-5.93c1.15-1.44,2.92-2.75,1.26-.25a32.87,32.87,0,0,1-24.31,15,39.62,39.62,0,0,1-25.24-7,54.74,54.74,0,0,1-6-6c-3.07-4.31.39-10.74,6.42-8"></path> <path class="cls-1" d="M37.54,97.42a3.26,3.26,0,0,0,1.61-.33,1,1,0,0,0,.52-1,2.6,2.6,0,0,0-.32-1.1,12.29,12.29,0,0,0-1.09-1.65c-.1-.14-.24-.34-.44-.59-1.27-1.7-1.9-3-1.9-3.82q0-2.31,2.77-4a13.42,13.42,0,0,1,7-1.65,4.36,4.36,0,0,1,2.12.36A1.38,1.38,0,0,1,48.35,85a5.21,5.21,0,0,1-.06.72,4.67,4.67,0,0,0,0,.51l0,.16a2.89,2.89,0,0,1-.61,1.78,2.47,2.47,0,0,1-1.72.61l-.25,0-.65,0h-.53a1.38,1.38,0,0,1-.6-.1.33.33,0,0,1-.2-.29v-.08l.15-.71a4.78,4.78,0,0,0-1.84.39c-.49.23-.73.48-.73.77a.91.91,0,0,0,.11.42,3.43,3.43,0,0,0,.39.58c.13.16.31.4.56.74,1.83,2.37,2.75,4.23,2.75,5.6a4.7,4.7,0,0,1-2.33,4.14,12,12,0,0,1-6.48,1.51,6.54,6.54,0,0,1-2.8-.46,1.5,1.5,0,0,1-.88-1.44c0-.13,0-.29,0-.5s0-.43.09-.68l0-.19v-.11a2.79,2.79,0,0,1,2.48-2.63l.16,0,.5,0,.79,0a1.67,1.67,0,0,1,.82.17.48.48,0,0,1,.3.45v.13ZM26.37,85.51,28.66,84a2.48,2.48,0,0,1,.56-.32,1.08,1.08,0,0,1,.38-.08c.64,0,1.2.52,1.66,1.55a9.81,9.81,0,0,1,.68,4,16.46,16.46,0,0,1-.57,4.37,14,14,0,0,1-1.69,3.79,10.69,10.69,0,0,1-3.32,3.37,7.42,7.42,0,0,1-4,1.2,5.68,5.68,0,0,1-4.46-1.89,7.22,7.22,0,0,1-1.69-5A11.64,11.64,0,0,1,17,90.75,12.58,12.58,0,0,1,19.23,87a11.31,11.31,0,0,1,3.13-2.65,6.66,6.66,0,0,1,3.21-1,1.47,1.47,0,0,1,.81.2.63.63,0,0,1,.3.56.36.36,0,0,1,0,.11.24.24,0,0,1,0,.08Zm-.26,1.23-.24.78a1.54,1.54,0,0,1-.71.79l-.16.08a7.58,7.58,0,0,0-2.67,2.89,8.26,8.26,0,0,0-1,3.94,3.18,3.18,0,0,0,.37,1.67,1.12,1.12,0,0,0,1,.61c.93,0,1.8-.81,2.63-2.42a12.45,12.45,0,0,0,1.25-5.76,7.68,7.68,0,0,0-.12-1.42A4.27,4.27,0,0,0,26.11,86.74ZM5,97.42a3.23,3.23,0,0,0,1.61-.33,1,1,0,0,0,.52-1A2.6,2.6,0,0,0,6.81,95a12.29,12.29,0,0,0-1.09-1.65c-.1-.14-.24-.34-.43-.59C4,91.09,3.38,89.82,3.38,89q0-2.31,2.77-4a13.44,13.44,0,0,1,7-1.65,4.36,4.36,0,0,1,2.12.36A1.38,1.38,0,0,1,15.81,85a5.21,5.21,0,0,1-.06.72,4.67,4.67,0,0,0-.05.51l0,.16a2.89,2.89,0,0,1-.61,1.78,2.47,2.47,0,0,1-1.72.61l-.25,0-.65,0H11.9a1.38,1.38,0,0,1-.6-.1.33.33,0,0,1-.2-.29v-.08l.15-.71a4.78,4.78,0,0,0-1.84.39c-.49.23-.73.48-.73.77a.91.91,0,0,0,.11.42,3.43,3.43,0,0,0,.39.58c.13.16.32.4.56.74,1.83,2.37,2.75,4.23,2.75,5.6a4.7,4.7,0,0,1-2.33,4.14,12,12,0,0,1-6.48,1.51,6.54,6.54,0,0,1-2.8-.46A1.5,1.5,0,0,1,0,99.91c0-.13,0-.29,0-.5s.05-.43.09-.68l0-.19,0-.11A2.77,2.77,0,0,1,2.64,95.8l.16,0,.5,0,.79,0a1.67,1.67,0,0,1,.82.17.48.48,0,0,1,.3.45v.13Z"></path> <path class="cls-1" d="M161.84,97.18l-.32,0a.42.42,0,0,1-.31-.19.64.64,0,0,1-.14-.41,1.9,1.9,0,0,1,.06-.35c0-.18.12-.52.24-1l0-.18,0,0c.33-1.38.83-2.07,1.51-2.07h.78q1.06-2.62,2.1-4.85c.69-1.48,1.29-2.68,1.81-3.58l.16-.26a2.74,2.74,0,0,1,.68-.85,1.43,1.43,0,0,1,.78-.2l.48,0c.19,0,.4,0,.62.07l.24,0a4.91,4.91,0,0,1,1.89.52,1.47,1.47,0,0,1,.52,1.08l.06.32c.15,1.21.27,2.82.36,4.81s.13,4.15.13,6.43c0,1.18,0,2.24-.07,3.17v.11l0,.3a1.72,1.72,0,0,1-.46,1.19,2.71,2.71,0,0,1-1.46.38l-.21,0H171a2.17,2.17,0,0,1-1.23-.29,1.06,1.06,0,0,1-.42-.88V94.73l-.83,1.9a1,1,0,0,1-.35.44,1.11,1.11,0,0,1-.6.13h-1.26c-.38,1-.78,1.94-1.18,3-.09.23-.15.36-.16.4l-.1.28a1.55,1.55,0,0,1-.43.6.92.92,0,0,1-.6.2,3.46,3.46,0,0,1-.6-.07,4,4,0,0,1-.66-.18l-.2,0a4.14,4.14,0,0,1-1.22-.56.76.76,0,0,1-.3-.62V100s0-.14.05-.25l0-.18a8.61,8.61,0,0,1,.33-.94c.16-.43.36-.91.59-1.44m5.87-4h2c.07-.92.11-1.73.14-2.43s0-1.24,0-1.61v-1.6c-.43.89-.81,1.8-1.18,2.72S168,92.14,167.71,93.16Zm-15.79,6.16c.13-.64.34-1.59.62-2.84s.61-2.59,1-4q.85-3.42,1.32-5.06c.32-1.1.62-2.1.93-3l.08-.22a1.81,1.81,0,0,1,.44-.8,1.11,1.11,0,0,1,.71-.2h.65l.53,0,.19,0a5.61,5.61,0,0,1,1.67.39.67.67,0,0,1,.42.61.47.47,0,0,1,0,.16,1.15,1.15,0,0,1-.06.21l-.05.23c-.18.7-.44,1.71-.79,3q-2.33,8.81-3,12.13l-.05.31a2.06,2.06,0,0,1-.46,1,1.4,1.4,0,0,1-.93.28c-.13,0-.3,0-.49,0l-.59-.1-.11,0a4.59,4.59,0,0,1-1.68-.59,1.16,1.16,0,0,1-.41-1,1.66,1.66,0,0,1,0-.24,1.16,1.16,0,0,1,0-.16Zm-17.77.45,0-.18c.13-.91.55-2.84,1.28-5.8S137,87.72,138,84.45l.05-.18a1.67,1.67,0,0,1,.47-.83,1.24,1.24,0,0,1,.81-.27,2.77,2.77,0,0,1,.46,0l.8.16.16,0a5,5,0,0,1,1.32.49,2.1,2.1,0,0,1,.79.68,10.89,10.89,0,0,1,1,2.94q.42,2,.86,5.78c.19-1.52.43-3.06.73-4.61s.65-3.11,1.05-4.68l.06-.2a.76.76,0,0,1,.27-.48.82.82,0,0,1,.52-.15,3.78,3.78,0,0,1,.63,0,5.53,5.53,0,0,1,.75.15l.24,0a4,4,0,0,1,1.28.55.91.91,0,0,1,.45.72V85a.88.88,0,0,1,0,.17l0,.2c0,.34-.27,1.34-.67,3s-.89,3.5-1.45,5.51l-.57,2a35.92,35.92,0,0,0-1.06,4.26,1.83,1.83,0,0,0,.06.41,1.3,1.3,0,0,1,.07.35.49.49,0,0,1-.32.46,2.74,2.74,0,0,1-1,.14h-.53l-.31,0-.23,0a5.67,5.67,0,0,1-1.92-.6,1.59,1.59,0,0,1-.63-1.1l-.05-.22c0-.27-.11-.83-.21-1.67-.34-3-.73-5.73-1.16-8.18q-.46,3.21-1,6.06c-.37,1.89-.73,3.47-1.07,4.74l-.09.26a1.12,1.12,0,0,1-1.25,1l-.45,0-.58-.09-.2,0a3.54,3.54,0,0,1-1.4-.45,1,1,0,0,1-.5-.79,2.11,2.11,0,0,1,0-.26A1.32,1.32,0,0,1,134.15,99.77Zm-6-21.46h2.6a.92.92,0,0,1,.45.09,1.07,1.07,0,0,1,.33.34l.07.1a11.3,11.3,0,0,1,.65,1c.2.33.4.66.57,1l.06.11L133,81a.45.45,0,0,1,0,.11.41.41,0,0,1,0,.19.5.5,0,0,1-.21.13l-1.47.58-.13,0h-.07a.32.32,0,0,1-.22-.1,1.3,1.3,0,0,1-.23-.3l-.05-.07a7.27,7.27,0,0,0-.59-.86,7.46,7.46,0,0,0-.72-.77l-1.35,1.15q-.7.61-.78.66l-.09,0-.09.07a.69.69,0,0,1-.34.16.22.22,0,0,1-.14,0l0,0-1.15-1.1,0,0a.31.31,0,0,1-.13-.21.22.22,0,0,1,.06-.12.61.61,0,0,1,.16-.16l.1-.07c.15-.11.41-.32.79-.65s.71-.66,1-1l.08-.09a.85.85,0,0,1,.29-.19,1,1,0,0,1,.35-.07Zm-.2,7,1.93-1.52a2.29,2.29,0,0,1,.47-.33.77.77,0,0,1,.32-.07c.55,0,1,.51,1.41,1.55a11.34,11.34,0,0,1,.58,4,18.73,18.73,0,0,1-.49,4.36,15.26,15.26,0,0,1-1.42,3.79,10.08,10.08,0,0,1-2.81,3.38,5.61,5.61,0,0,1-3.38,1.2,4.5,4.5,0,0,1-3.77-1.89,8.15,8.15,0,0,1-1.43-5,13.54,13.54,0,0,1,.68-4.18,13.23,13.23,0,0,1,1.87-3.76,10.21,10.21,0,0,1,2.65-2.64,4.92,4.92,0,0,1,2.71-1,1.08,1.08,0,0,1,.68.19.68.68,0,0,1,.25.56.34.34,0,0,1,0,.11.19.19,0,0,1,0,.08Zm-.22,1.23-.21.78a1.37,1.37,0,0,1-.6.78l-.13.09a7.17,7.17,0,0,0-2.26,2.88,9.56,9.56,0,0,0-.81,4,3.64,3.64,0,0,0,.31,1.66,1,1,0,0,0,.84.62c.78,0,1.52-.81,2.22-2.42a14.29,14.29,0,0,0,1.06-5.77,8.65,8.65,0,0,0-.1-1.41A4.92,4.92,0,0,0,127.74,86.55ZM112.9,87.63h-3.83a2,2,0,0,1-1-.18.72.72,0,0,1-.26-.63,2.59,2.59,0,0,1,.1-.55,7.77,7.77,0,0,1,.26-.77l.08-.16a4.3,4.3,0,0,1,.87-1.47,1.55,1.55,0,0,1,1.08-.33h5.3a1.59,1.59,0,0,1,1.06.27,6.1,6.1,0,0,1,.82,1.71l.08.19a7.41,7.41,0,0,1,.27,1,5.05,5.05,0,0,1,.1.86,1.32,1.32,0,0,1-.11.47,2,2,0,0,1-.31.5l-.13.15c-.41.53-1.21,1.6-2.39,3.2s-2.48,3.35-3.88,5.27h3.27a1.37,1.37,0,0,1,.9.23.9.9,0,0,1,.25.72,3.29,3.29,0,0,1,0,.49,5.29,5.29,0,0,1-.16.63l-.08.22a3.72,3.72,0,0,1-.84,1.71,2.81,2.81,0,0,1-1.54.3h-5.25a1.8,1.8,0,0,1-1.14-.25,2.84,2.84,0,0,1-.61-1.1l-.08-.18a8.51,8.51,0,0,1-.28-.89,2.71,2.71,0,0,1-.09-.61,2.05,2.05,0,0,1,.47-1l.13-.18.07-.12,4.15-5.73C111.32,89.72,112.24,88.48,112.9,87.63ZM91.5,97.18l-.32,0a.44.44,0,0,1-.32-.19.69.69,0,0,1-.13-.41,1.9,1.9,0,0,1,.06-.35c0-.18.11-.52.23-1l0-.18v0c.34-1.38.84-2.07,1.51-2.07h.78q1.07-2.62,2.1-4.85c.7-1.48,1.3-2.68,1.81-3.58l.17-.26a2.6,2.6,0,0,1,.68-.85,1.41,1.41,0,0,1,.78-.2l.48,0c.19,0,.4,0,.62.07l.24,0a5,5,0,0,1,1.89.52,1.5,1.5,0,0,1,.52,1.08l0,.32c.16,1.21.28,2.82.37,4.81s.13,4.15.13,6.43c0,1.18,0,2.24-.08,3.17v.11l0,.3a1.67,1.67,0,0,1-.47,1.19,2.64,2.64,0,0,1-1.45.38l-.21,0h-.34a2.15,2.15,0,0,1-1.23-.29,1.09,1.09,0,0,1-.43-.88V94.73l-.83,1.9a.92.92,0,0,1-.34.44,1.13,1.13,0,0,1-.61.13H95.93c-.38,1-.78,1.94-1.18,3-.09.23-.15.36-.17.4l-.1.28a1.44,1.44,0,0,1-.42.6.92.92,0,0,1-.6.2,3.46,3.46,0,0,1-.6-.07,3.79,3.79,0,0,1-.66-.18l-.2,0a4.14,4.14,0,0,1-1.22-.56.74.74,0,0,1-.31-.62,1,1,0,0,1,0-.17,1.19,1.19,0,0,1,0-.25l0-.18c.06-.2.17-.51.33-.94S91.27,97.71,91.5,97.18Zm5.86-4h2c.06-.92.11-1.73.14-2.43s0-1.24,0-1.61v-1.6c-.43.89-.82,1.8-1.18,2.72S97.67,92.14,97.36,93.16ZM68.57,99.67q.81-3.51,2-7.41c.8-2.61,1.72-5.24,2.74-7.91l.08-.21a1.58,1.58,0,0,1,.5-.74,1.54,1.54,0,0,1,.86-.21c.27,0,.52,0,.76,0s.48.06.71.1l.27,0a5.36,5.36,0,0,1,1.92.6,1.94,1.94,0,0,1,.62,1.43v.51c0,.75,0,1.93-.1,3.55s-.15,3.41-.26,5.37l2.11-4.52q2.2-4.77,2.82-5.76l.1-.18a2.79,2.79,0,0,1,.82-1,1.94,1.94,0,0,1,.93-.2,2.89,2.89,0,0,1,.4,0l.71.08.13,0a5,5,0,0,1,1.9.63,1.36,1.36,0,0,1,.54,1.2v.33c0,.26-.07.87-.16,1.82s-.27,2.73-.53,5.36c-.09.88-.2,2-.34,3.46-.21,2.08-.35,3.33-.42,3.78l0,.21a1.76,1.76,0,0,1-.57,1.19,2.61,2.61,0,0,1-1.48.31h-.49a2.78,2.78,0,0,1-1.28-.28.78.78,0,0,1-.38-.74,1.21,1.21,0,0,1,0-.18,1,1,0,0,0,0-.14v-.13c0-.16.23-1.49.61-4s.7-4.86,1-7.12q-1.11,2.6-2.4,5.35T80,100l-.1.21a3.19,3.19,0,0,1-.82,1.12,1.83,1.83,0,0,1-1.13.3c-.11,0-.3,0-.58,0H77.2l-.24,0A2.49,2.49,0,0,1,75.6,101a1.31,1.31,0,0,1-.45-1.06v-.07l0-.22q.07-2.62.33-7.67c.06-1.3.11-2.27.14-2.92q-1.22,3.74-2.49,9.15c-.24,1-.42,1.71-.53,2.12l-.08.27a1.61,1.61,0,0,1-.36.81,1,1,0,0,1-.69.19c-.14,0-.3,0-.5,0l-.62-.1-.19,0a4.28,4.28,0,0,1-1.33-.45.78.78,0,0,1-.39-.68,1.7,1.7,0,0,1,0-.22c0-.07,0-.16.06-.26ZM54.7,97.18l-.32,0a.46.46,0,0,1-.32-.19.69.69,0,0,1-.13-.41,1.9,1.9,0,0,1,.06-.35c0-.18.11-.52.24-1l0-.18,0,0q.49-2.07,1.5-2.07h.79q1-2.62,2.09-4.85c.7-1.48,1.3-2.68,1.81-3.58l.17-.26a2.6,2.6,0,0,1,.68-.85,1.41,1.41,0,0,1,.78-.2l.48,0c.19,0,.4,0,.62.07l.24,0a5,5,0,0,1,1.89.52,1.47,1.47,0,0,1,.52,1.08l0,.32c.16,1.21.28,2.82.37,4.81s.13,4.15.13,6.43c0,1.18,0,2.24-.08,3.17v.11l0,.3a1.67,1.67,0,0,1-.47,1.19,2.64,2.64,0,0,1-1.45.38l-.21,0h-.34a2.15,2.15,0,0,1-1.23-.29,1.09,1.09,0,0,1-.43-.88V94.73l-.83,1.9a.92.92,0,0,1-.34.44,1.11,1.11,0,0,1-.6.13H59.13c-.38,1-.78,1.94-1.18,3-.09.23-.15.36-.17.4l-.1.28a1.44,1.44,0,0,1-.42.6.92.92,0,0,1-.6.2,3.46,3.46,0,0,1-.6-.07,3.79,3.79,0,0,1-.66-.18l-.2,0a4.14,4.14,0,0,1-1.22-.56.77.77,0,0,1-.31-.62,1,1,0,0,1,0-.17,1.19,1.19,0,0,1,0-.25l.05-.18c0-.2.16-.51.32-.94S54.47,97.71,54.7,97.18Zm5.86-4h2c.06-.92.11-1.73.14-2.43s0-1.24,0-1.61v-1.6c-.43.89-.82,1.8-1.18,2.72S60.87,92.14,60.56,93.16Z"></path> </svg> 