<svg width="200" height="117" viewBox="0 0 200 117" fill="none" xmlns="http://www.w3.org/2000/svg">
<g clip-path="url(#clip0)">
<path fill-rule="evenodd" clip-rule="evenodd" d="M63.3896 27.4949C67.3313 31.0797 69.9706 27.1847 80.574 28.8163C87.2472 30.3789 89.7943 36.7901 90.9468 39.8349C89.0797 39.5821 81.1157 40.0877 72.9672 38.0195C68.0689 36.6178 65.1876 30.264 63.3896 27.4949" fill="black"/>
<path fill-rule="evenodd" clip-rule="evenodd" d="M104.708 50.6927C98.8763 44.0516 100.501 32.4355 108.166 27.966C113.709 25.6681 110.551 15.9363 104.593 18.4066C90.3014 25.9553 86.2099 46.3841 97.5739 58.0347C101.919 62.9523 108.627 55.5644 104.708 50.6927Z" fill="black"/>
<path d="M112.303 15.2699C109.039 13.8862 105.586 12.9992 102.057 12.6387C100.49 12.5238 98.9454 12.5008 97.4471 12.4779H95.8105H95.7068V12.4089C95.8807 12.2773 96.0885 12.1976 96.3061 12.1791L97.4586 12.0298H97.8275H98.2193C99.0146 12.0298 99.8214 12.0298 100.617 12.0298C104.766 11.708 101.089 11.6046 101.32 11.3863C99.3027 10.0535 91.0505 11.5127 89.0797 12.6617L88.2268 12.9719L87.5468 13.2477L86.8092 13.5579L86.037 13.9026L85.2533 14.2703L83.4207 15.1894L82.2682 15.718C81.8994 15.8673 81.2885 16.1201 81.6919 15.5916C82.0726 15.1633 82.5064 14.7849 82.9828 14.4656L83.3977 14.2013L83.8356 13.937L84.2967 13.6728L84.7692 13.4085C85.3916 13.0753 86.0255 12.7536 86.6594 12.4319L88.4227 11.5931L89.7482 11.0301L88.8146 11.2599C87.5814 11.6276 86.3712 12.0987 85.115 12.4089H84.7461L85.0458 12.1217C86.7746 11.0804 88.6514 10.3057 90.6126 9.82372L91.6038 9.52499L92.6065 9.19179L93.5285 8.9505L94.4159 8.75518L95.2688 8.58283L96.0871 8.42197L96.8709 8.29559L97.62 8.18069L100.571 7.87047L101.308 7.68663H100.086L97.6085 7.87047L95.5685 8.13473L93.5285 8.51389L91.5231 8.99646L89.5407 9.60542L87.5929 10.3408L85.7028 11.1565L83.8702 12.0757C83.0865 12.5353 82.2912 12.9719 81.5651 13.443C80.2682 14.2593 79.0142 15.1413 77.8079 16.0856L74.5577 18.8432C73.7381 19.6839 72.8473 20.4528 71.8953 21.1411L71.6879 21.0607C71.7686 20.8769 71.8492 20.7045 71.9414 20.5322C73.5504 18.3401 75.4591 16.3832 77.6119 14.7184C78.7645 13.7532 79.917 12.834 81.1618 11.9723C79.8133 12.7536 78.4994 13.6268 77.1855 14.4656C76.2606 15.1781 75.2775 15.8123 74.2465 16.3614L74.0506 16.258L74.3618 15.7754C75.8199 14.2614 77.4705 12.9442 79.2716 11.8574L80.6777 10.9612L83.4899 9.32966L86.06 8.04281C87.1319 7.58322 88.2038 7.1581 89.2872 6.75596L88.7455 6.89384L86.6133 7.62918L84.5156 8.47942L82.4756 9.45605C80.7869 10.3539 79.1444 11.3356 77.5543 12.3974C76.1713 13.397 74.8458 14.4311 73.5435 15.5341C72.2411 16.6371 71.2384 17.8321 70.1665 18.981L65.9367 24.4616L65.614 24.5536C65.5736 24.4383 65.5736 24.3127 65.614 24.1974C65.6947 23.9331 65.7869 23.6689 65.8791 23.4046L66.2364 22.6003C67.2706 20.8997 68.4261 19.2755 69.694 17.7402C71.6811 15.3631 73.9226 13.2094 76.3787 11.3174C76.5055 10.8233 75.3299 11.6965 72.8174 13.8796C71.8838 14.8562 70.9387 15.8214 69.9937 16.798C69.4865 17.4644 68.7489 18.6938 68.0459 18.9696C67.2276 18.6708 68.2879 17.384 68.6106 16.8899C70.1179 14.546 71.9232 12.4065 73.9814 10.5246C78.6922 5.9349 84.5569 2.69606 90.9583 1.14897C100.156 -1.13015 109.859 -0.205811 118.458 3.76863C127.344 7.84749 134.743 15.2584 133.706 20.3024C131.908 26.3919 125.846 26.0472 123.494 23.3471C120.21 19.5555 114.954 15.9707 112.303 15.2239" fill="black"/>
<path d="M76.955 51.5085C80.6431 53.8064 81.3923 56.6099 85.8526 58.6321C91.9044 62.2402 98.9365 63.8712 105.964 63.297L106.218 63.3889L106.114 63.5497C104.774 63.9943 103.365 64.1928 101.954 64.1357L101.274 64.2047L100.352 64.2736L101.285 64.4459C101.919 64.6183 102.576 64.6872 101.573 64.9745C99.9725 64.953 98.3779 64.7721 96.8132 64.4344L94.0702 64.1127C92.7102 64.0224 91.3473 64.2384 90.0824 64.7447L89.7482 64.986C89.4716 65.2962 89.5983 65.4685 90.14 65.5145C91.5461 65.6409 92.9407 65.7443 94.3583 65.8362L96.4905 66.0775L98.6688 66.2039C99.8214 66.2039 100.847 66.2039 101.954 66.2039L103.44 66.089L104.881 65.8707L106.368 65.6294L107.843 65.3192L109.318 64.9515L110.782 64.5264L112.234 64.0323L113.675 63.4693L117.421 61.7688L119.806 60.6199C123.84 58.5977 119.08 61.9527 117.882 62.6191L116.326 63.4578L113.836 64.7102C113.041 65.3766 115.15 64.5379 117.663 63.4693C118.492 63.1936 118.815 63.3085 117.985 63.814C116.117 64.9419 114.116 65.8335 112.027 66.4681L110.413 67.0081L108.915 67.4562L107.566 67.7894C105.688 68.2146 103.809 68.5363 101.907 68.8005L101.423 68.9384H101.965L104.028 68.7546L106.103 68.4673L108.212 68.0537L110.333 67.5137L112.453 66.8358L114.493 65.997L116.533 65.0204C120.867 62.9982 124.739 59.8271 128.577 56.6099C129.488 55.7554 130.476 54.9861 131.528 54.312C132.012 53.9788 131.528 54.8175 131.355 54.9324C129.766 56.5977 128.013 58.0989 126.122 59.4134L124.97 60.3326L123.817 61.1599C123.137 61.6424 122.457 62.0905 121.743 62.5271C121.247 62.8374 120.59 63.1476 120.901 63.3889C122.284 63.1361 122.861 62.3663 124.808 60.9301C125.722 60.0641 126.714 59.2834 127.77 58.5977C128.266 58.3334 127.551 59.2296 127.448 59.2985C123.771 62.8259 116.787 67.5022 111.865 68.2031C118.942 67.192 125.696 62.1365 131.17 56.2997L136.184 51.0719C136.472 50.7042 136.749 50.9455 136.53 51.3821C135.071 53.4679 133.394 55.3936 131.528 57.127C130.882 57.7704 130.237 58.4023 129.603 59.0458L127.805 60.7118L126.042 62.1135L124.624 63.1591C124.163 63.5268 124.739 63.2625 124.831 63.3199C125.465 63.1821 123.437 64.6642 126.722 62.9178C126.918 63.5612 125.062 64.6987 124.232 65.5834C127.229 63.7526 129.911 61.4519 132.173 58.77C133.499 57.1155 135.539 55.6103 133.625 58.4828C130.557 63.2718 126.444 67.3088 121.592 70.2928C116.741 73.2769 111.277 75.1311 105.607 75.7174C95.2762 76.4017 85.0187 73.5657 76.517 67.6746C74.0365 65.5584 71.7245 63.2536 69.6018 60.7807C66.0635 55.8286 70.0513 48.4407 77.0011 51.5889" fill="black"/>
<path fill-rule="evenodd" clip-rule="evenodd" d="M43.2663 111.933C43.9072 111.967 44.546 111.836 45.1219 111.554C45.3261 111.445 45.4925 111.277 45.5994 111.072C45.7063 110.867 45.7488 110.634 45.7212 110.405C45.6941 109.962 45.5681 109.53 45.3524 109.141C44.9854 108.476 44.5653 107.842 44.0961 107.245C43.9809 107.084 43.8195 106.855 43.589 106.567C42.1253 104.614 41.3992 103.12 41.3992 102.178C41.3992 100.409 42.4634 98.8769 44.5917 97.5823C47.0579 96.2304 49.8473 95.575 52.6595 95.6865C53.4958 95.6189 54.3358 95.7611 55.1029 96.1002C55.3431 96.2763 55.5289 96.5162 55.6389 96.7925C55.749 97.0688 55.7789 97.3703 55.7252 97.6628C55.7214 97.9398 55.6983 98.2162 55.6561 98.49C55.6454 98.6852 55.6454 98.8808 55.6561 99.076V99.2598C55.6571 100.001 55.4097 100.721 54.953 101.305C54.4062 101.782 53.697 102.033 52.9707 102.006H52.6825H51.9334H51.3225C51.0863 102.019 50.8501 101.98 50.631 101.891C50.5649 101.863 50.5082 101.817 50.4674 101.758C50.4266 101.699 50.4034 101.629 50.4005 101.558V101.466L50.5734 100.65C49.8437 100.658 49.1229 100.81 48.4527 101.098C47.888 101.362 47.6114 101.65 47.6114 101.983C47.614 102.152 47.6574 102.317 47.7381 102.465C47.8648 102.702 48.0154 102.926 48.1876 103.132C48.3375 103.316 48.5449 103.591 48.8331 103.982C50.9422 106.705 52.0025 108.842 52.0025 110.416C52.0191 111.376 51.779 112.322 51.3071 113.158C50.8351 113.994 50.1482 114.69 49.3171 115.173C47.0414 116.442 44.4524 117.043 41.8487 116.908C40.7471 116.969 39.6455 116.789 38.6216 116.38C38.3055 116.237 38.0398 116.003 37.8589 115.708C37.678 115.413 37.5904 115.07 37.6073 114.725C37.6073 114.576 37.6073 114.392 37.6073 114.151C37.6073 113.909 37.6073 113.656 37.7111 113.369V113.151V113.025C37.7502 112.265 38.0593 111.543 38.5829 110.99C39.1066 110.436 39.8107 110.086 40.5694 110.003H40.7538H41.33H42.2405C42.5671 109.987 42.8923 110.054 43.1856 110.198C43.2887 110.24 43.3768 110.311 43.4385 110.403C43.5002 110.496 43.5325 110.604 43.5314 110.715V110.864L43.2663 111.933ZM30.3924 98.2487L33.0318 96.5138C33.2299 96.3638 33.4469 96.2401 33.6772 96.1461C33.8164 96.0894 33.9648 96.0582 34.1151 96.0542C34.8528 96.0542 35.4982 96.6517 36.0284 97.8351C36.608 99.2959 36.875 100.861 36.8121 102.431C36.8199 104.126 36.5989 105.815 36.1551 107.452C35.7265 108.992 35.07 110.46 34.2073 111.807C33.2379 113.366 31.9305 114.689 30.3809 115.679C29.0083 116.569 27.4082 117.047 25.7708 117.057C24.8064 117.096 23.8454 116.921 22.9568 116.545C22.0681 116.17 21.2737 115.603 20.6304 114.886C19.2772 113.285 18.5814 111.232 18.6826 109.141C18.6791 107.475 18.9879 105.823 19.5932 104.269C20.1916 102.695 21.0614 101.237 22.1633 99.9607C23.1696 98.7351 24.3922 97.7032 25.7708 96.9159C26.8851 96.2238 28.1589 95.8282 29.4704 95.767C29.7973 95.7521 30.1216 95.8319 30.404 95.9968C30.5136 96.0639 30.6034 96.1588 30.6642 96.2718C30.7249 96.3849 30.7544 96.512 30.7497 96.6402C30.7562 96.6821 30.7562 96.7247 30.7497 96.7666C30.7549 96.797 30.7549 96.8281 30.7497 96.8585L30.3924 98.2487ZM30.0928 99.662L29.8162 100.558C29.66 100.948 29.37 101.27 28.9979 101.466L28.8135 101.558C27.5124 102.375 26.4509 103.521 25.7362 104.878C24.9797 106.268 24.5836 107.824 24.5836 109.405C24.5473 110.072 24.6948 110.735 25.0101 111.324C25.1186 111.536 25.2837 111.713 25.4871 111.837C25.6905 111.96 25.9243 112.026 26.1626 112.025C27.2345 112.025 28.2372 111.094 29.1938 109.244C30.1985 107.185 30.6925 104.916 30.6345 102.626C30.6392 102.079 30.5929 101.533 30.4962 100.995C30.4259 100.534 30.2901 100.085 30.0928 99.662V99.662ZM5.76269 111.933C6.40367 111.968 7.04289 111.838 7.61828 111.554C7.82247 111.445 7.98887 111.277 8.09579 111.072C8.2027 110.867 8.24515 110.634 8.2176 110.405C8.18877 109.965 8.06282 109.538 7.84879 109.153C7.48179 108.488 7.06168 107.854 6.59252 107.257C6.47727 107.096 6.31591 106.866 6.09693 106.579C4.61015 104.66 3.89558 103.201 3.89558 102.259C3.89558 100.489 4.95976 98.9573 7.08811 97.6628C9.55469 96.312 12.3438 95.6565 15.1559 95.767C15.9922 95.6993 16.8322 95.8415 17.5993 96.1806C17.826 96.35 18.0033 96.5767 18.1127 96.8373C18.2221 97.0978 18.2597 97.3828 18.2216 97.6628C18.2178 97.9398 18.1947 98.2162 18.1525 98.49C18.1225 98.6842 18.1033 98.8798 18.0949 99.076V99.2598C18.0959 100.001 17.8484 100.721 17.3918 101.305C16.845 101.782 16.1357 102.033 15.4094 102.006H15.1213H14.3722H13.7152C13.479 102.019 13.2428 101.98 13.0237 101.891C12.9576 101.863 12.9009 101.817 12.8601 101.758C12.8193 101.699 12.7961 101.629 12.7932 101.558V101.466L12.9661 100.65C12.2364 100.658 11.5155 100.81 10.8454 101.098C10.2806 101.362 10.004 101.65 10.004 101.983C10.0066 102.152 10.0501 102.317 10.1308 102.465C10.2575 102.702 10.4081 102.926 10.5803 103.132C10.7301 103.316 10.9491 103.591 11.2257 103.982C13.3349 106.705 14.3952 108.842 14.3952 110.416C14.4118 111.376 14.1717 112.322 13.6997 113.158C13.2278 113.994 12.5409 114.69 11.7098 115.173C9.43412 116.442 6.8451 117.043 4.24134 116.908C3.1398 116.969 2.03817 116.789 1.01423 116.38C0.709299 116.242 0.451123 116.018 0.271073 115.737C0.0910241 115.455 -0.00314773 115.128 1.18583e-07 114.794C1.18583e-07 114.645 1.18583e-07 114.461 1.18583e-07 114.219C1.18583e-07 113.978 0.0576271 113.725 0.103729 113.438V113.22V113.093C0.140629 112.319 0.459526 111.585 1.00061 111.029C1.54169 110.473 2.26779 110.132 3.0427 110.072H3.22711H3.80338H4.71388C5.04044 110.056 5.36569 110.123 5.65896 110.267C5.76204 110.309 5.85017 110.38 5.91184 110.472C5.97352 110.565 6.00589 110.673 6.00473 110.784V110.933L5.76269 111.933Z" fill="black"/>
<path fill-rule="evenodd" clip-rule="evenodd" d="M186.527 111.657H186.158C186.086 111.65 186.016 111.626 185.954 111.589C185.893 111.551 185.84 111.5 185.801 111.439C185.694 111.305 185.637 111.139 185.639 110.968C185.65 110.832 185.673 110.697 185.709 110.566C185.709 110.359 185.847 109.968 185.985 109.417V109.21C186.365 107.624 186.942 106.832 187.725 106.832H188.624C189.439 104.825 190.246 102.967 191.045 101.259C191.84 99.5586 192.532 98.1798 193.131 97.1457L193.315 96.847C193.508 96.4725 193.775 96.1404 194.099 95.8704C194.37 95.7095 194.682 95.6297 194.998 95.6406H195.551C195.77 95.6406 196.012 95.6406 196.266 95.721H196.542C197.301 95.7722 198.042 95.9754 198.721 96.3185C198.902 96.4717 199.05 96.6614 199.153 96.8753C199.256 97.0891 199.313 97.3222 199.32 97.5594L199.389 97.927C199.562 99.3173 199.7 101.167 199.804 103.454C199.908 105.74 199.954 108.222 199.954 110.842C199.954 112.197 199.954 113.415 199.873 114.484V114.61V114.955C199.879 115.461 199.689 115.951 199.343 116.322C198.835 116.623 198.251 116.775 197.66 116.759H197.418H197.084C196.589 116.79 196.095 116.674 195.666 116.426C195.51 116.308 195.385 116.155 195.301 115.979C195.217 115.803 195.176 115.609 195.182 115.414V108.842L194.226 111.025C194.143 111.229 194.003 111.404 193.822 111.531C193.611 111.644 193.371 111.696 193.131 111.68H191.679C191.241 112.829 190.78 113.909 190.319 115.127C190.215 115.391 190.146 115.541 190.134 115.587L190.019 115.908C189.912 116.175 189.742 116.411 189.523 116.598C189.327 116.754 189.082 116.835 188.832 116.828C188.599 116.821 188.368 116.794 188.14 116.747C187.881 116.7 187.627 116.631 187.38 116.54H187.149C186.649 116.404 186.174 116.186 185.743 115.897C185.633 115.814 185.545 115.706 185.485 115.582C185.425 115.458 185.395 115.322 185.397 115.185V114.897C185.397 114.897 185.397 114.737 185.455 114.61V114.403C185.561 114.036 185.688 113.676 185.835 113.323C186.02 112.829 186.25 112.278 186.515 111.669L186.527 111.657ZM193.281 107.073H195.586C195.666 106.016 195.713 105.085 195.747 104.281C195.782 103.477 195.747 102.856 195.747 102.431V100.593C195.252 101.615 194.814 102.661 194.387 103.718C193.961 104.775 193.626 105.866 193.292 107.038L193.281 107.073ZM175.082 114.151C175.232 113.415 175.474 112.324 175.797 110.887C176.119 109.451 176.5 107.912 176.949 106.292C177.602 103.672 178.109 101.734 178.471 100.478C178.839 99.2139 179.185 98.0649 179.542 97.0308L179.635 96.7781C179.722 96.4335 179.897 96.117 180.142 95.8589C180.38 95.6915 180.669 95.6105 180.96 95.6291H181.709H182.32H182.539C183.2 95.6792 183.849 95.8304 184.464 96.0772C184.605 96.1336 184.726 96.2302 184.812 96.3549C184.898 96.4795 184.945 96.6267 184.948 96.7781C184.958 96.8389 184.958 96.9011 184.948 96.9619C184.933 97.0443 184.909 97.1251 184.879 97.2032L184.821 97.4674C184.614 98.2717 184.314 99.4322 183.911 100.914C182.12 107.663 180.968 112.308 180.453 114.851L180.395 115.208C180.326 115.631 180.143 116.029 179.865 116.357C179.558 116.588 179.178 116.702 178.793 116.678C178.643 116.678 178.448 116.678 178.229 116.678L177.549 116.563H177.422C176.738 116.466 176.08 116.235 175.486 115.885C175.319 115.747 175.189 115.569 175.107 115.369C175.024 115.169 174.992 114.952 175.013 114.737C175.006 114.645 175.006 114.553 175.013 114.461C175.009 114.4 175.009 114.338 175.013 114.277L175.082 114.151ZM154.602 114.668V114.461C154.751 113.415 155.235 111.198 156.077 107.797C156.918 104.396 157.898 100.788 159.05 97.0308L159.108 96.824C159.192 96.4604 159.38 96.129 159.65 95.8704C159.914 95.6601 160.245 95.5501 160.583 95.5601C160.76 95.5455 160.937 95.5455 161.113 95.5601L162.035 95.744H162.22C162.751 95.8592 163.263 96.0487 163.741 96.307C164.106 96.487 164.419 96.7557 164.652 97.0883C165.196 98.1536 165.584 99.2912 165.804 100.466C166.127 101.998 166.457 104.212 166.795 107.107C167.014 105.361 167.291 103.591 167.637 101.811C167.982 100.03 168.386 98.2373 168.847 96.4334L168.916 96.2036C168.947 95.9874 169.058 95.7907 169.227 95.6521C169.402 95.5287 169.613 95.4679 169.827 95.4797C170.068 95.4596 170.311 95.4596 170.553 95.4797C170.844 95.5172 171.133 95.5748 171.417 95.6521H171.694C172.219 95.7751 172.718 95.989 173.169 96.284C173.316 96.3695 173.441 96.4895 173.531 96.6336C173.621 96.7778 173.675 96.9417 173.688 97.1113V97.6628C173.694 97.7277 173.694 97.7931 173.688 97.8581V98.0879C173.688 98.4785 173.376 99.6275 172.915 101.535C172.454 103.442 171.89 105.556 171.244 107.866L170.587 110.164C170.08 111.769 169.672 113.403 169.366 115.058C169.371 115.217 169.394 115.375 169.435 115.529C169.48 115.659 169.507 115.794 169.515 115.931C169.515 116.047 169.48 116.159 169.414 116.253C169.348 116.348 169.255 116.42 169.147 116.46C168.776 116.584 168.385 116.639 167.994 116.621H167.383H167.026H166.761C165.988 116.524 165.238 116.291 164.548 115.931C164.346 115.782 164.178 115.592 164.053 115.375C163.928 115.157 163.849 114.917 163.822 114.668L163.764 114.415C163.764 114.105 163.637 113.461 163.522 112.496C163.13 109.049 162.681 105.912 162.185 103.097C161.832 105.556 161.448 107.877 161.033 110.06C160.606 112.232 160.191 114.047 159.799 115.506L159.696 115.805C159.679 115.976 159.627 116.141 159.545 116.291C159.463 116.442 159.352 116.575 159.218 116.682C159.084 116.789 158.929 116.868 158.764 116.915C158.599 116.961 158.426 116.975 158.255 116.954H157.736L157.068 116.851H156.837C156.269 116.793 155.719 116.617 155.224 116.334C155.061 116.241 154.923 116.109 154.823 115.951C154.722 115.793 154.662 115.613 154.648 115.426C154.641 115.326 154.641 115.227 154.648 115.127C154.609 114.965 154.597 114.799 154.613 114.633L154.602 114.668ZM147.686 90.0106H150.683C150.862 90.0008 151.04 90.0364 151.202 90.114C151.356 90.2143 151.486 90.3477 151.582 90.5047L151.663 90.6196C151.932 90.9891 152.182 91.3727 152.412 91.7685C152.642 92.1477 152.873 92.5269 153.069 92.9175L153.138 93.0439L153.288 93.0669C153.293 93.1088 153.293 93.1513 153.288 93.1933C153.305 93.265 153.305 93.3398 153.288 93.4116C153.221 93.4808 153.138 93.5321 153.046 93.5609L151.351 94.2273H151.202H151.121C151.025 94.2236 150.933 94.1823 150.867 94.1124C150.763 94.011 150.673 93.8949 150.602 93.7677L150.545 93.6873C150.342 93.3421 150.115 93.0119 149.865 92.6992C149.609 92.3852 149.332 92.0895 149.035 91.8145L147.479 93.1358C146.941 93.6031 146.641 93.8558 146.58 93.8941H146.476L146.372 93.9746C146.261 94.0708 146.126 94.1344 145.981 94.1584C145.928 94.1759 145.872 94.1759 145.819 94.1584L144.494 92.8945C144.454 92.8667 144.419 92.8309 144.394 92.7894C144.368 92.7479 144.351 92.7015 144.344 92.6532C144.352 92.6012 144.376 92.553 144.413 92.5154C144.463 92.4432 144.525 92.3808 144.597 92.3315L144.713 92.2511C144.886 92.1247 145.185 91.8834 145.623 91.5043C146.061 91.1251 146.442 90.7459 146.776 90.3553L146.868 90.2519C146.963 90.157 147.077 90.0827 147.202 90.0336C147.331 89.9829 147.467 89.9556 147.606 89.9532L147.686 90.0106ZM147.456 98.0534L149.68 96.307C149.844 96.1584 150.026 96.031 150.222 95.9278C150.338 95.8749 150.463 95.8475 150.591 95.8474C151.225 95.8474 151.743 96.4334 152.216 97.6283C152.713 99.108 152.939 100.665 152.884 102.224C152.893 103.91 152.704 105.592 152.319 107.234C151.97 108.751 151.42 110.216 150.683 111.588C149.903 113.105 148.797 114.431 147.444 115.472C146.332 116.344 144.964 116.828 143.549 116.851C142.702 116.87 141.863 116.682 141.105 116.304C140.348 115.925 139.695 115.367 139.204 114.679C138.04 112.995 137.461 110.977 137.555 108.934C137.562 107.302 137.827 105.682 138.339 104.131C138.822 102.586 139.55 101.128 140.494 99.8114C141.316 98.6214 142.352 97.593 143.549 96.7781C144.451 96.0921 145.539 95.6919 146.672 95.6291C146.95 95.6123 147.226 95.6891 147.456 95.8474C147.551 95.9246 147.627 96.0231 147.677 96.1349C147.727 96.2466 147.75 96.3686 147.744 96.4908C147.751 96.5327 147.751 96.5753 147.744 96.6172C147.75 96.6475 147.75 96.6788 147.744 96.7091L147.456 98.0534ZM147.202 99.4667L146.96 100.363C146.849 100.737 146.603 101.056 146.269 101.259L146.119 101.362C144.978 102.222 144.08 103.362 143.514 104.672C142.875 106.119 142.556 107.686 142.581 109.267C142.548 109.922 142.67 110.576 142.938 111.175C143.018 111.371 143.15 111.541 143.321 111.667C143.492 111.793 143.694 111.869 143.906 111.887C144.805 111.887 145.658 110.956 146.465 109.107C147.327 107.005 147.743 104.747 147.686 102.477C147.692 101.935 147.654 101.393 147.571 100.857C147.517 100.373 147.401 99.898 147.225 99.4437L147.202 99.4667ZM130.122 100.685H125.707C125.312 100.716 124.915 100.644 124.555 100.478C124.449 100.391 124.366 100.28 124.314 100.153C124.261 100.027 124.241 99.8898 124.255 99.7539C124.271 99.5397 124.309 99.3278 124.37 99.122C124.455 98.822 124.555 98.5267 124.67 98.2373L124.762 98.0534C124.98 97.4292 125.321 96.8549 125.765 96.3644C126.117 96.0865 126.562 95.9511 127.01 95.9853H133.118C133.549 95.9414 133.982 96.0513 134.34 96.2955C134.756 96.8973 135.075 97.5602 135.285 98.2602L135.377 98.4785C135.508 98.8538 135.612 99.2378 135.688 99.6275C135.755 99.953 135.794 100.284 135.804 100.616C135.795 100.802 135.752 100.985 135.677 101.156C135.587 101.364 135.466 101.557 135.32 101.73L135.17 101.902C134.697 102.511 133.775 103.741 132.415 105.579C131.055 107.418 129.557 109.428 127.943 111.634H131.712C132.078 111.599 132.445 111.693 132.749 111.899C132.855 112.007 132.936 112.137 132.986 112.28C133.035 112.423 133.053 112.575 133.038 112.726C133.052 112.913 133.052 113.101 133.038 113.289C132.991 113.534 132.929 113.775 132.853 114.013L132.761 114.265C132.615 114.993 132.281 115.67 131.793 116.23C131.246 116.511 130.63 116.63 130.018 116.575H123.967C123.509 116.627 123.047 116.526 122.653 116.288C122.327 115.924 122.087 115.492 121.95 115.024L121.858 114.817C121.732 114.482 121.624 114.141 121.535 113.794C121.474 113.565 121.439 113.33 121.431 113.093C121.503 112.668 121.691 112.271 121.973 111.945L122.123 111.738L122.204 111.6L126.987 105.016C128.301 103.086 129.361 101.661 130.122 100.685ZM105.457 111.657H105.088C105.015 111.65 104.943 111.627 104.88 111.589C104.816 111.551 104.761 111.5 104.72 111.439C104.621 111.302 104.568 111.137 104.57 110.968C104.58 110.832 104.603 110.697 104.639 110.566C104.639 110.359 104.766 109.968 104.904 109.417V109.21C105.296 107.624 105.872 106.832 106.644 106.832H107.543C108.366 104.825 109.172 102.967 109.964 101.259C110.77 99.5586 111.462 98.1798 112.05 97.1457L112.246 96.847C112.435 96.47 112.702 96.1371 113.029 95.8704C113.3 95.7083 113.613 95.6284 113.928 95.6406H114.482C114.701 95.6406 114.943 95.6406 115.196 95.721H115.473C116.231 95.7749 116.972 95.978 117.651 96.3185C117.831 96.4731 117.977 96.6631 118.081 96.8766C118.184 97.0902 118.241 97.3226 118.25 97.5594V97.927C118.435 99.3173 118.573 101.167 118.677 103.454C118.781 105.74 118.827 108.222 118.827 110.842C118.827 112.197 118.827 113.415 118.735 114.484V114.61V114.955C118.739 115.207 118.693 115.458 118.6 115.692C118.507 115.927 118.369 116.141 118.193 116.322C117.69 116.626 117.109 116.777 116.522 116.759H116.28H115.888C115.392 116.792 114.899 116.676 114.47 116.426C114.314 116.307 114.188 116.154 114.102 115.979C114.016 115.803 113.972 115.61 113.975 115.414V108.842L113.018 111.025C112.943 111.23 112.806 111.407 112.626 111.531C112.41 111.645 112.167 111.697 111.923 111.68H110.563C110.125 112.829 109.664 113.909 109.203 115.127C109.099 115.391 109.03 115.541 109.007 115.587L108.892 115.908C108.793 116.176 108.626 116.413 108.408 116.598C108.212 116.754 107.967 116.835 107.716 116.828C107.484 116.821 107.252 116.794 107.025 116.747C106.765 116.701 106.511 116.632 106.264 116.54H106.034C105.533 116.404 105.058 116.186 104.627 115.897C104.514 115.816 104.422 115.709 104.36 115.585C104.298 115.461 104.267 115.323 104.27 115.185C104.265 115.12 104.265 115.054 104.27 114.989C104.26 114.894 104.26 114.798 104.27 114.702V114.495C104.339 114.265 104.466 113.909 104.651 113.415C104.835 112.921 105.192 112.266 105.457 111.657ZM112.211 107.061H114.516C114.585 106.004 114.643 105.074 114.678 104.269C114.712 103.465 114.678 102.845 114.678 102.42V100.581C114.182 101.604 113.733 102.649 113.318 103.706C112.903 104.763 112.568 105.866 112.211 107.038V107.061ZM79.0296 114.518C79.6519 111.83 80.4203 108.992 81.3346 106.004C82.2567 103.006 83.317 99.9837 84.4926 96.9159L84.5848 96.6747C84.6909 96.3419 84.891 96.0467 85.1611 95.8244C85.4607 95.649 85.8053 95.5651 86.1523 95.5831C86.4634 95.5831 86.7516 95.5831 87.0282 95.5831C87.3048 95.5831 87.5814 95.6521 87.8465 95.698H88.1577C88.9323 95.7865 89.6832 96.0205 90.3705 96.3874C90.5971 96.5971 90.7776 96.8514 90.9006 97.1342C91.0236 97.417 91.0864 97.7222 91.0851 98.0304V98.6164C91.0851 99.4782 91.0851 100.834 90.9699 102.695C90.8546 104.557 90.797 106.613 90.6702 108.865L93.1021 103.672C94.7925 100.018 95.8758 97.8121 96.3522 97.0538L96.4675 96.847C96.6879 96.3955 97.0116 96.0019 97.4126 95.698C97.7452 95.5339 98.1135 95.455 98.4844 95.4682C98.6379 95.4576 98.7919 95.4576 98.9454 95.4682L99.7637 95.5601H99.9136C100.685 95.6518 101.43 95.898 102.103 96.284C102.316 96.4426 102.484 96.6522 102.593 96.8934C102.702 97.1345 102.748 97.3992 102.726 97.6628V98.0419C102.726 98.3407 102.645 99.0415 102.541 100.133C102.438 101.225 102.23 103.27 101.931 106.292C101.827 107.303 101.7 108.59 101.539 110.267C101.297 112.657 101.135 114.093 101.055 114.61V114.851C101.022 115.375 100.786 115.865 100.398 116.219C99.8768 116.503 99.2833 116.627 98.6919 116.575H98.1271C97.6167 116.586 97.1109 116.476 96.6519 116.253C96.5058 116.167 96.3872 116.042 96.3097 115.891C96.2322 115.741 96.199 115.571 96.2139 115.403C96.2088 115.334 96.2088 115.265 96.2139 115.196C96.2177 115.143 96.2177 115.089 96.2139 115.035V114.886C96.2139 114.702 96.479 113.174 96.917 110.29C97.3549 107.406 97.7237 104.706 98.0695 102.109C97.2166 104.101 96.2946 106.15 95.3034 108.256C94.3122 110.363 93.2788 112.576 92.2031 114.897L92.0878 115.139C91.8714 115.632 91.5487 116.071 91.1427 116.426C90.7581 116.679 90.3006 116.8 89.8404 116.77C89.7136 116.77 89.4946 116.77 89.1719 116.77H88.976H88.6994C88.1147 116.695 87.5674 116.442 87.1319 116.046C86.9581 115.896 86.821 115.708 86.7312 115.497C86.6413 115.286 86.6009 115.057 86.6133 114.828V114.748V114.495C86.6671 112.488 86.7938 109.551 86.9936 105.683C87.0628 104.189 87.1204 103.074 87.155 102.328C86.2176 105.192 85.261 108.697 84.2851 112.841C84.0085 113.99 83.8011 114.805 83.6743 115.277L83.5821 115.587C83.5339 115.93 83.3901 116.252 83.1672 116.517C82.9382 116.686 82.655 116.763 82.3719 116.736C82.2106 116.736 82.0262 116.736 81.7957 116.736L81.0811 116.621H80.8621C80.3261 116.534 79.8082 116.359 79.3292 116.104C79.1918 116.025 79.0778 115.911 78.9989 115.774C78.9199 115.636 78.8788 115.481 78.8797 115.323C78.8743 115.238 78.8743 115.154 78.8797 115.07C78.8797 114.989 78.8797 114.886 78.9489 114.771L79.0296 114.518ZM63.0439 111.657H62.675C62.6017 111.649 62.531 111.625 62.4675 111.587C62.404 111.549 62.3491 111.499 62.3062 111.439C62.2072 111.302 62.1547 111.137 62.1564 110.968C62.1668 110.832 62.19 110.697 62.2256 110.566C62.2256 110.359 62.3523 109.968 62.5022 109.417V109.21C62.8787 107.624 63.4549 106.832 64.231 106.832H65.1415C65.9098 104.825 66.7128 102.967 67.5503 101.259C68.3571 99.5586 69.0486 98.1798 69.6364 97.1457L69.8323 96.847C70.0215 96.47 70.2886 96.1371 70.616 95.8704C70.8869 95.7083 71.1993 95.6284 71.515 95.6406H72.0682C72.2872 95.6406 72.5292 95.6406 72.7828 95.721H73.0594C73.8179 95.7749 74.5583 95.978 75.2377 96.3185C75.4194 96.4717 75.5667 96.6614 75.67 96.8753C75.7733 97.0891 75.8302 97.3222 75.837 97.5594V97.927C76.0214 99.3173 76.1597 101.167 76.2635 103.454C76.3672 105.74 76.4133 108.222 76.4133 110.842C76.4133 112.197 76.4133 113.415 76.3211 114.484V114.61V114.955C76.3254 115.207 76.2798 115.458 76.1868 115.692C76.0939 115.927 75.9554 116.141 75.7794 116.322C75.2764 116.626 74.6959 116.777 74.1082 116.759H73.8662H73.4743C72.979 116.792 72.4851 116.676 72.0567 116.426C71.9007 116.307 71.7746 116.154 71.6886 115.979C71.6025 115.803 71.5589 115.61 71.5611 115.414V108.842L70.6045 111.025C70.5293 111.23 70.3924 111.407 70.2126 111.531C70.0008 111.644 69.7611 111.696 69.5211 111.68H68.1496C67.7116 112.829 67.2506 113.909 66.7896 115.127C66.6859 115.391 66.6167 115.541 66.5937 115.587L66.4784 115.908C66.3794 116.176 66.2126 116.413 65.9944 116.598C65.7983 116.754 65.5533 116.835 65.3028 116.828C65.0704 116.821 64.839 116.794 64.6113 116.747C64.352 116.701 64.0974 116.632 63.8506 116.54H63.6201C63.1194 116.404 62.6445 116.186 62.214 115.897C62.1028 115.814 62.0125 115.707 61.9504 115.583C61.8884 115.459 61.8563 115.323 61.8567 115.185C61.8512 115.12 61.8512 115.054 61.8567 114.989C61.8466 114.894 61.8466 114.798 61.8567 114.702L61.9144 114.495C61.9144 114.265 62.0988 113.909 62.2832 113.415C62.4676 112.921 62.7788 112.266 63.0439 111.657ZM69.7977 107.061H72.1028C72.172 106.004 72.2296 105.074 72.2642 104.269C72.2987 103.465 72.2642 102.845 72.2642 102.42V100.581C71.7686 101.604 71.3191 102.649 70.9042 103.706C70.4893 104.763 70.155 105.866 69.7977 107.038V107.061Z" fill="black"/>
</g>
<defs>
<clipPath id="clip0">
<rect width="200" height="117" fill="white"/>
</clipPath>
</defs>
</svg>
